<?xml version="1.0" encoding="UTF-8"?>
<svg width="196px" height="91px" viewBox="0 0 196 91" version="1.1" xmlns="http://www.w3.org/2000/svg" xmlns:xlink="http://www.w3.org/1999/xlink">
    <!-- Generator: sketchtool 57 (101010) - https://sketch.com -->
    <title>C709D51A-B7B9-4631-BA7C-AC0472B11305</title>
    <desc>Created with sketchtool.</desc>
    <g id="Page-2" stroke="none" stroke-width="1" fill="none" fill-rule="evenodd">
        <g id="Design-Process-Library" transform="translate(-575.000000, -264.000000)">
            <g id="concept-displays" transform="translate(576.000000, 265.000000)">
                <rect id="Rectangle" stroke="#1BD9C4" stroke-width="2" fill="#A6F0E8" x="91.1428571" y="45" width="29" height="44" rx="4"></rect>
                <rect id="Rectangle" stroke="#1BD9C4" stroke-width="2" fill="#A6F0E8" x="127.142857" y="45" width="29" height="44" rx="4"></rect>
                <rect id="Rectangle" fill="#1BD9C4" x="131.142857" y="56" width="20" height="6" rx="3"></rect>
                <rect id="Rectangle" fill="#1BD9C4" x="131.142857" y="64" width="20" height="6" rx="3"></rect>
                <rect id="Rectangle" fill="#1BD9C4" x="131.142857" y="73" width="20" height="6" rx="3"></rect>
                <rect id="Rectangle" stroke="#1BD9C4" stroke-width="2" fill="#A6F0E8" x="164.142857" y="45" width="29" height="44" rx="4"></rect>
                <path d="M91.2118534,77 L4.7515528,77 C2.20624047,77 0.142857143,74.9418463 0.142857143,72.4029851 L0.142857143,4.59701493 C0.142857143,2.05815369 2.20624047,0 4.7515528,0 L4.7515528,0 L101.534161,0 C104.079474,0 106.142857,2.05815369 106.142857,4.59701493 L106.142857,46.3719391" id="Path" stroke="#1BD9C4" stroke-width="2"></path>
                <g id="noun_creativity_2208143" transform="translate(27.142857, 13.000000)" fill="#1BD9C4" fill-rule="nonzero">
                    <g id="Group" transform="translate(0.574868, 0.503009)">
                        <path d="M8.97535416,14.2088016 L8.97535416,16.3188257 L8.15941287,16.3188257 C7.70901328,16.3188257 7.34347158,16.6843674 7.34347158,17.134767 L7.34347158,20.3985322 C7.34347158,20.8489318 7.70901328,21.2144735 8.15941287,21.2144735 L16.3188257,21.2144735 C16.7692253,21.2144735 17.134767,20.8489318 17.134767,20.3985322 L17.134767,17.134767 C17.134767,16.6843674 16.7692253,16.3188257 16.3188257,16.3188257 L15.5028845,16.3188257 L15.5028845,14.2088016 L16.8956962,12.8159898 C18.1024734,11.6100286 18.7666496,10.005888 18.7666496,8.29893883 L18.7666496,6.38800434 C18.7666496,4.6818711 18.1024734,3.07773053 16.8956962,1.87095337 C15.6889191,0.664176208 14.0855944,0 12.3786453,0 L12.0987774,0 C10.3926442,0 8.7885036,0.664176208 7.58172644,1.87095337 C6.37494927,3.07773053 5.71158901,4.68105516 5.71158901,6.38800434 L5.71158901,8.29975477 C5.71158901,10.005888 6.37576522,11.6100286 7.58254238,12.8168057 L8.97535416,14.2088016 Z M15.5028845,19.5825909 L8.97535416,19.5825909 L8.97535416,17.9507083 L9.79129544,17.9507083 L14.6869432,17.9507083 L15.5028845,17.9507083 L15.5028845,19.5825909 Z M7.34347158,6.38800434 C7.34347158,5.11758375 7.837932,3.92304571 8.73628336,3.02469435 C9.63463472,2.12634299 10.8283568,1.63188257 12.0995933,1.63188257 L12.3794612,1.63188257 C13.6498818,1.63188257 14.8444198,2.12634299 15.7427712,3.02469435 C16.6403066,3.92304571 17.134767,5.11676781 17.134767,6.38800434 L17.134767,8.29975477 C17.134767,9.57017535 16.6403066,10.7647134 15.7419552,11.6630648 L14.1100727,13.2949473 C13.9566757,13.4467124 13.8710019,13.6547774 13.8710019,13.8710019 L13.8710019,16.3188257 L10.6072367,16.3188257 L10.6072367,13.8710019 C10.6072367,13.6547774 10.5215629,13.4467124 10.3681659,13.2941314 L8.73628336,11.6622488 C7.837932,10.7638975 7.34347158,9.57017535 7.34347158,8.29893883 L7.34347158,6.38800434 Z" id="Shape"></path>
                        <polygon id="Path" points="15.5028845 8.15941287 13.0550606 8.15941287 13.0550606 4.89564772 11.423178 4.89564772 11.423178 8.15941287 8.97535416 8.15941287 8.97535416 9.79129544 15.5028845 9.79129544"></polygon>
                        <rect id="Rectangle" x="21.2144735" y="8.15941287" width="3.26376515" height="1.63188257"></rect>
                        <polygon id="Rectangle" transform="translate(21.622569, 5.303411) rotate(-45.000000) translate(-21.622569, -5.303411) " points="19.8915666 4.48747802 23.3535722 4.48747802 23.3535722 6.11934494 19.8915666 6.11934494"></polygon>
                        <polygon id="Rectangle" transform="translate(21.622488, 12.647460) rotate(-45.000000) translate(-21.622488, -12.647460) " points="20.8065543 10.9164572 22.4384213 10.9164572 22.4384213 14.3784629 20.8065543 14.3784629"></polygon>
                        <rect id="Rectangle" x="0" y="8.15941287" width="3.26376515" height="1.63188257"></rect>
                        <polygon id="Rectangle" transform="translate(2.856001, 5.303907) rotate(-45.000000) translate(-2.856001, -5.303907) " points="2.04006792 3.572904 3.67193485 3.572904 3.67193485 7.03490968 2.04006792 7.03490968"></polygon>
                        <polygon id="Rectangle" transform="translate(2.856001, 12.646720) rotate(-45.000000) translate(-2.856001, -12.646720) " points="1.12499855 11.8307864 4.58700423 11.8307864 4.58700423 13.4626533 1.12499855 13.4626533"></polygon>
                        <path d="M38.4887664,0 L38.2088986,0 C36.5027654,0 34.8986248,0.664176208 33.6918476,1.87095337 C32.4850705,3.07773053 31.8217102,4.68105516 31.8217102,6.38800434 L31.8217102,8.29975477 C31.8217102,10.005888 32.4858864,11.6100286 33.6926636,12.8168057 L35.0854753,14.2088016 L35.0854753,16.3188257 L34.2695341,16.3188257 C33.8191345,16.3188257 33.4535928,16.6843674 33.4535928,17.134767 L33.4535928,20.3985322 C33.4535928,20.8489318 33.8191345,21.2144735 34.2695341,21.2144735 L42.4289469,21.2144735 C42.8793465,21.2144735 43.2448882,20.8489318 43.2448882,20.3985322 L43.2448882,17.134767 C43.2448882,16.6843674 42.8793465,16.3188257 42.4289469,16.3188257 L41.6130056,16.3188257 L41.6130056,14.2088016 L43.0058174,12.8159898 C44.2125946,11.6100286 44.8767708,10.005888 44.8767708,8.29893883 L44.8767708,6.38800434 C44.8767708,4.6818711 44.2125946,3.07773053 43.0058174,1.87095337 C41.7990402,0.664176208 40.1957156,0 38.4887664,0 Z M41.6130056,19.5825909 L35.0854753,19.5825909 L35.0854753,17.9507083 L35.9014166,17.9507083 L40.7970643,17.9507083 L41.6130056,17.9507083 L41.6130056,19.5825909 Z M43.2448882,8.29893883 C43.2448882,9.56935941 42.7504278,10.7638975 41.8520764,11.6622488 L40.2201939,13.2941314 C40.0667969,13.4467124 39.9811231,13.6547774 39.9811231,13.8710019 L39.9811231,16.3188257 L36.7173579,16.3188257 L36.7173579,13.8710019 C36.7173579,13.6547774 36.6316841,13.4467124 36.4782871,13.2941314 L34.8464045,11.6622488 C33.9480532,10.7638975 33.4535928,9.57017535 33.4535928,8.29893883 L33.4535928,6.38800434 C33.4535928,5.11758375 33.9480532,3.92304571 34.8464045,3.02469435 C35.7447559,2.12634299 36.938478,1.63188257 38.2097145,1.63188257 L38.4895824,1.63188257 C39.760003,1.63188257 40.954541,2.12634299 41.8528924,3.02469435 C42.7504278,3.92304571 43.2448882,5.11676781 43.2448882,6.38800434 L43.2448882,8.29893883 Z" id="Shape"></path>
                        <polygon id="Path" points="39.1651818 4.89564772 37.5332992 4.89564772 37.5332992 8.15941287 35.0854753 8.15941287 35.0854753 9.79129544 41.6130056 9.79129544 41.6130056 8.15941287 39.1651818 8.15941287"></polygon>
                        <rect id="Rectangle" x="47.3245946" y="8.15941287" width="3.26376515" height="1.63188257"></rect>
                        <polygon id="Rectangle" transform="translate(47.732446, 5.303656) rotate(-45.000000) translate(-47.732446, -5.303656) " points="46.001443 4.4877228 49.4634486 4.4877228 49.4634486 6.11958973 46.001443 6.11958973"></polygon>
                        <polygon id="Rectangle" transform="translate(47.732446, 12.647623) rotate(-45.000000) translate(-47.732446, -12.647623) " points="46.9165123 10.9166204 48.5483793 10.9166204 48.5483793 14.378626 46.9165123 14.378626"></polygon>
                        <rect id="Rectangle" x="26.1101212" y="8.15941287" width="3.26376515" height="1.63188257"></rect>
                        <polygon id="Rectangle" transform="translate(28.965959, 5.304070) rotate(-45.000000) translate(-28.965959, -5.304070) " points="28.1500259 3.57306719 29.7818928 3.57306719 29.7818928 7.03507287 28.1500259 7.03507287"></polygon>
                        <polygon id="Rectangle" transform="translate(28.965878, 12.646883) rotate(-45.000000) translate(-28.965878, -12.646883) " points="27.2348749 11.8309496 30.6968806 11.8309496 30.6968806 13.4628165 27.2348749 13.4628165"></polygon>
                        <path d="M44.0608295,44.0608295 L43.2448882,44.0608295 L43.2448882,28.557945 C43.2448882,26.3083949 41.4147319,24.4782386 39.1651818,24.4782386 L31.0057689,24.4782386 L31.0057689,26.1101212 L39.1651818,26.1101212 C40.5147487,26.1101212 41.6130056,27.2083782 41.6130056,28.557945 L41.6130056,44.0608295 L39.9811231,44.0608295 L39.9811231,28.557945 C39.9811231,28.1067295 39.6155814,27.7420038 39.1651818,27.7420038 L29.3738863,27.7420038 L29.3738863,29.3738863 L38.3492405,29.3738863 L38.3492405,44.0608295 L29.2718937,44.0608295 L27.7420038,32.5837994 L27.7420038,29.5664485 L29.2882125,26.4748469 C29.4187631,26.2129298 29.3999964,25.9004243 29.2376241,25.6572738 L25.973859,20.761626 C25.6711448,20.3071467 24.9188469,20.3071467 24.6161327,20.761626 L21.3523675,25.6572738 C21.1899952,25.9004243 21.1704126,26.2129298 21.3017792,26.4748469 L22.846356,29.5664485 L22.846356,32.5837994 L21.3164661,44.0608295 L12.2391193,44.0608295 L12.2391193,29.3738863 L21.2144735,29.3738863 L21.2144735,27.7420038 L11.423178,27.7420038 C10.9727784,27.7420038 10.6072367,28.1067295 10.6072367,28.557945 L10.6072367,44.0608295 L8.97535416,44.0608295 L8.97535416,28.557945 C8.97535416,27.2083782 10.0736111,26.1101212 11.423178,26.1101212 L19.5825909,26.1101212 L19.5825909,24.4782386 L11.423178,24.4782386 C9.17362789,24.4782386 7.34347158,26.3083949 7.34347158,28.557945 L7.34347158,44.0608295 L6.5275303,44.0608295 C6.0771307,44.0608295 5.71158901,44.4255552 5.71158901,44.8767708 L5.71158901,46.5086534 C5.71158901,48.7582035 7.54174531,50.5883598 9.79129544,50.5883598 L40.7970643,50.5883598 C43.0466145,50.5883598 44.8767708,48.7582035 44.8767708,46.5086534 L44.8767708,44.8767708 C44.8767708,44.4255552 44.5112291,44.0608295 44.0608295,44.0608295 Z M24.4782386,30.1898276 L26.1101212,30.1898276 L26.1101212,31.8217102 L24.4782386,31.8217102 L24.4782386,30.1898276 Z M25.2941799,22.6856156 L27.6163488,26.1696849 L26.4218108,28.557945 L24.166549,28.557945 L22.972011,26.168869 L25.2941799,22.6856156 Z M24.3762459,33.4535928 L26.2112979,33.4535928 L27.6253242,44.0608295 L26.1101212,44.0608295 L26.1101212,41.6130056 L24.4782386,41.6130056 L24.4782386,44.0608295 L22.9622197,44.0608295 L24.3762459,33.4535928 Z M43.2448882,46.5086534 C43.2448882,47.8582202 42.1466312,48.9564772 40.7970643,48.9564772 L9.79129544,48.9564772 C8.44172855,48.9564772 7.34347158,47.8582202 7.34347158,46.5086534 L7.34347158,45.6927121 L43.2448882,45.6927121 L43.2448882,46.5086534 Z" id="Shape"></path>
                    </g>
                </g>
                <path d="M123.142857,66.5 L127.142857,66.5" id="Line" stroke="#1BD9C4" stroke-width="2" fill-opacity="0.392318619" fill="#1BD9C4" stroke-linecap="square"></path>
                <path d="M157.142857,66.5 L161.142857,66.5" id="Line" stroke="#1BD9C4" stroke-width="2" fill-opacity="0.392318619" fill="#1BD9C4" stroke-linecap="square"></path>
            </g>
        </g>
    </g>
</svg>