<?xml version="1.0" encoding="UTF-8"?>
<svg width="99px" height="99px" viewBox="0 0 99 99" version="1.1" xmlns="http://www.w3.org/2000/svg" xmlns:xlink="http://www.w3.org/1999/xlink">
    <!-- Generator: sketchtool 57 (101010) - https://sketch.com -->
    <title>FE1A8283-5634-4941-A012-FCD5EB9AD09F</title>
    <desc>Created with sketchtool.</desc>
    <g id="Page-2" stroke="none" stroke-width="1" fill="none" fill-rule="evenodd">
        <g id="Design-Process-Library" transform="translate(-178.000000, -262.000000)">
            <g id="discovery-mag-glass" transform="translate(177.978947, 262.000000)">
                <circle id="Oval" fill="#A7CAE6" cx="49.5210526" cy="48.5" r="21.5"></circle>
                <g id="noun_discover_1626805" transform="translate(0.021053, 0.000000)" fill="#1C77C3" fill-rule="nonzero">
                    <path d="M48.7826087,7.17391304 C49.5749672,7.17391304 50.2173913,6.53148899 50.2173913,5.73913043 L50.2173913,1.43478261 C50.2173913,0.642423841 49.5749672,0 48.7826087,0 C47.9902501,0 47.3478261,0.642423913 47.3478261,1.43478261 L47.3478261,5.73913043 C47.3478261,6.53148899 47.9902501,7.17391304 48.7826087,7.17391304 Z" id="Path"></path>
                    <path d="M48.7826087,91.826087 C47.9902501,91.826087 47.3478261,92.468511 47.3478261,93.2608696 L47.3478261,97.5652174 C47.3478261,98.3575759 47.9902501,99 48.7826087,99 C49.5749672,99 50.2173913,98.3575759 50.2173913,97.5652174 L50.2173913,93.2608696 C50.2173913,92.468511 49.5749672,91.826087 48.7826087,91.826087 Z" id="Path"></path>
                    <path d="M97.5652174,48.7826087 L93.2608696,48.7826087 C92.468511,48.7826087 91.826087,49.4250328 91.826087,50.2173913 C91.826087,51.0097499 92.468511,51.6521739 93.2608696,51.6521739 L97.5652174,51.6521739 C98.3575759,51.6521739 99,51.0097499 99,50.2173913 C99,49.4250328 98.3575759,48.7826087 97.5652174,48.7826087 Z" id="Path"></path>
                    <path d="M5.73913043,48.7826087 L1.43478261,48.7826087 C0.642431087,48.7826087 0,49.4250328 0,50.2173913 C0,51.0097499 0.642431087,51.6521739 1.43478261,51.6521739 L5.73913043,51.6521739 C6.53148899,51.6521739 7.17391304,51.0097499 7.17391304,50.2173913 C7.17391304,49.4250328 6.53148899,48.7826087 5.73913043,48.7826087 Z" id="Path"></path>
                    <path d="M17.7098375,19.6790332 C17.9814516,19.9509825 18.3380822,20.0869565 18.6944325,20.0869565 C19.0507151,20.0869565 19.4069964,19.9509826 19.6789597,19.6790332 C20.2229555,19.1351345 20.2229555,18.253911 19.6789597,17.7100123 L16.7248933,14.7557501 C16.1816625,14.2118514 15.2997668,14.2118514 14.7557711,14.7557501 C14.2118444,15.2997178 14.2118444,16.1808722 14.7557711,16.7247709 L17.7098375,19.6790332 Z" id="Path"></path>
                    <path d="M17.7100045,79.3208247 L14.7557873,82.2748586 C14.211897,82.8181444 14.211897,83.7001353 14.7554394,84.2441862 C15.0273846,84.5161797 15.3837112,84.6521739 15.7403179,84.6521739 C16.0965755,84.6521739 16.452833,84.5161798 16.7247781,84.2441862 L19.6789953,81.2901576 C20.2228856,80.7467974 20.2228856,79.8648066 19.6793432,79.3208247 C19.1360796,78.7774645 18.2545907,78.7767685 17.7100045,79.3208247 Z" id="Path"></path>
                    <path d="M80.3054848,20.0869565 C80.6618108,20.0869565 81.0184237,19.9509826 81.2900211,19.6790332 L84.2442518,16.7247709 C84.788148,16.1808722 84.788148,15.2997178 84.2442518,14.7557501 C83.7009877,14.2118514 82.8184484,14.2118514 82.2751843,14.7557501 L79.3210174,17.7100123 C78.7770522,18.253911 78.7770522,19.1351345 79.3210174,19.6790332 C79.592615,19.9509825 79.9492225,20.0869565 80.3054848,20.0869565 Z" id="Path"></path>
                    <path d="M80.1943114,71.5781349 C79.9166309,71.2718091 79.5269938,71.0891748 79.1131035,71.071097 C78.720836,71.0628273 78.3315064,71.1888353 78.03267,71.4453308 L74.6055832,67.8661463 C78.3927928,62.7410333 80.6347013,56.410245 80.6347013,49.5551839 C80.6347013,32.4876055 66.7597551,18.6521739 49.6434376,18.6521739 C32.52712,18.6521739 18.6521739,32.4876055 18.6521739,49.5551839 C18.6521739,66.6227624 32.5271171,80.458194 49.6434376,80.458194 C55.8250328,80.458194 61.5784033,78.6467339 66.4135825,75.5368109 L69.7964364,79.0669432 L69.5259616,79.3099172 L69.544091,79.3302348 C69.0659705,79.9126782 69.068997,80.7675317 69.5894943,81.3409392 L84.231703,97.4774836 C85.1491198,98.4590406 86.417976,99 87.8052259,99 C89.1428875,99 90.4352226,98.4922607 91.4445276,97.5694992 L94.3768424,94.8904422 C95.434654,93.9247232 96.0724574,92.576424 96.1265322,91.1920459 C96.1775924,89.8928048 95.7258946,88.6652618 94.8720874,87.7546248 L80.1943114,71.5781349 Z M21.7513003,49.5551839 C21.7513003,34.2191007 34.2635572,21.7424749 49.6434376,21.7424749 C65.023318,21.7424749 77.5355749,34.2191007 77.5355749,49.5551839 C77.5355749,64.8912671 65.023318,77.367893 49.6434376,77.367893 C34.2635572,77.367893 21.7513003,64.8912671 21.7513003,49.5551839 Z M68.9551017,73.7162383 C70.270833,72.6690898 71.5030462,71.5222807 72.6315193,70.2788997 L75.8467813,73.6370486 L72.1011032,76.9989875 L68.9551017,73.7162383 Z M92.2836931,92.6111884 L89.3509942,95.2910234 C88.9144051,95.6901311 88.3654695,95.909699 87.8056101,95.909699 C87.2876724,95.909699 86.8238863,95.7180995 86.5144395,95.3875953 L72.9277134,80.4144643 L79.0484123,74.9211473 L92.5908168,89.8460631 C92.9771259,90.2586982 93.0429048,90.74009 93.0300422,91.0712897 C93.0077277,91.6371289 92.7360884,92.1984767 92.2836931,92.6111884 Z" id="Shape"></path>
                    <path d="M49.5,27.2608696 C36.8215712,27.2608696 26.5434783,37.5389625 26.5434783,50.2173913 C26.5434783,62.8958201 36.8215712,73.173913 49.5,73.173913 C62.1784288,73.173913 72.4565217,62.8958172 72.4565217,50.2173913 C72.4565217,37.5389654 62.1784259,27.2608696 49.5,27.2608696 Z M49.5,70.1130435 C38.5295381,70.1130435 29.6043478,61.1874708 29.6043478,50.2173913 C29.6043478,39.246547 38.5295381,30.3217391 49.5,30.3217391 C60.4704619,30.3217391 69.3956522,39.246547 69.3956522,50.2173913 C69.3956522,61.1874708 60.4704648,70.1130435 49.5,70.1130435 Z" id="Shape"></path>
                    <path d="M60.2026455,37.4269713 L44.958325,43.8917477 C44.5866727,44.0489365 44.2832137,44.3481654 44.1067114,44.7307258 L36.7533023,60.6479319 C36.4580788,61.2868471 36.5621084,62.0535178 37.0153557,62.5763944 C37.327044,62.9370875 37.7597101,63.1304348 38.2014984,63.1304348 C38.4016513,63.1304348 38.6038208,63.0909234 38.7973545,63.0085377 L54.0420783,56.5454854 C54.4137337,56.3882934 54.7171896,56.0889756 54.8936919,55.706504 L62.2466977,39.7875806 C62.5419212,39.1486621 62.4378916,38.3819913 61.9846443,37.8582544 C61.5318835,37.3353744 60.8233559,37.1621735 60.2026455,37.4269713 Z M45.52445,48.7826087 L50.9347826,54.5619127 L40.8913043,58.826087 L45.52445,48.7826087 Z M53.4754257,51.6521739 L48.0652174,45.8728664 L58.1086957,41.6086957 L53.4754257,51.6521739 Z" id="Shape"></path>
                </g>
            </g>
        </g>
    </g>
</svg>