<?xml version="1.0" encoding="UTF-8"?>
<svg width="96px" height="95px" viewBox="0 0 96 95" version="1.1" xmlns="http://www.w3.org/2000/svg" xmlns:xlink="http://www.w3.org/1999/xlink">
    <!-- Generator: sketchtool 57 (101010) - https://sketch.com -->
    <title>CCE9C78C-B4B3-40F4-ADE3-8C73A756A13D</title>
    <desc>Created with sketchtool.</desc>
    <g id="Page-2" stroke="none" stroke-width="1" fill="none" fill-rule="evenodd">
        <g id="Design-Process-Library" transform="translate(-1352.000000, -262.000000)">
            <g id="sprints-arrows" transform="translate(1352.000000, 262.000000)">
                <circle id="Oval" fill="#B3D2EE" cx="48" cy="46.5" r="24.5"></circle>
                <g id="noun_cycle_184481" transform="translate(0.500000, 0.000000)" fill="#094074" fill-rule="nonzero">
                    <path d="M79.3496943,40.7181747 C78.5655339,41.6537945 78.6876773,43.0462312 79.6232955,43.8303929 L86.0113937,49.1912744 C86.4254597,49.5381621 86.9286904,49.7079417 87.4294782,49.7079417 C88.059738,49.7079417 88.685112,49.4392258 89.1223853,48.9188942 L94.4832577,42.5307853 C95.2674182,41.596387 95.1452748,40.2051717 94.210878,39.4197885 C93.2752598,38.6368482 91.8840468,38.7589918 91.098665,39.6921687 L89.2152142,41.9371676 C88.0182092,32.805714 83.8812133,24.3643717 77.2598213,17.74419 C76.3974891,16.880635 74.9989475,16.880635 74.1366154,17.74419 C73.2742832,18.6053022 73.2742832,20.0038461 74.1366154,20.8674012 C80.0398044,26.7706001 83.7297555,34.2909799 84.818053,42.4257419 L82.4606859,40.4482374 C81.5262892,39.6628542 80.1350762,39.7862192 79.3496943,40.7181747 Z M45.8079038,86.0114545 C45.0249648,86.9458528 45.1471082,88.3382895 46.081505,89.1224513 L52.4696032,94.4833327 C52.8836692,94.8302204 53.3868999,95 53.8876877,95 C54.5179475,95 55.1433215,94.7312841 55.5805948,94.2109525 C56.3647552,93.2765542 56.2426118,91.8841175 55.3082151,91.0999557 L53.0448984,89.2018446 C62.1812224,88.006059 70.6311007,83.882492 77.256157,77.2574246 C78.1184892,76.395091 78.1184892,74.996547 77.256157,74.1342134 C76.3938248,73.2706584 74.9952832,73.2706584 74.1329511,74.1342134 C68.2273192,80.0398552 60.706952,83.7371411 52.5685393,84.8254404 L54.5509262,82.4607408 C55.3350866,81.5263425 55.2129432,80.1339057 54.2785465,79.349744 C53.3417068,78.5655822 51.9504939,78.6889473 51.1663334,79.6221242 L45.8079038,86.0114545 Z M0.789522409,55.5806047 C1.20358843,55.9274924 1.70681911,56.097272 2.20760692,56.097272 C2.83908814,56.097272 3.46324075,55.8285561 3.90051401,55.3082245 L5.79740053,53.0485684 C6.99196268,62.1849077 11.1167442,70.6323572 17.7418006,77.2562031 C18.1741881,77.6885914 18.737269,77.9023426 19.3027928,77.9023426 C19.8683166,77.9023426 20.432619,77.68737 20.8637851,77.2562031 C21.7261173,76.3938695 21.7261173,74.9953256 20.8637851,74.132992 C14.9618175,68.2310145 11.2767521,60.7130776 10.1884546,52.5795371 L12.5384931,54.5509343 C13.4716684,55.3350961 14.8641028,55.2129525 15.6494847,54.2785542 C16.4348665,53.3429344 16.3127231,51.9504977 15.3771049,51.1663359 L8.98900676,45.8054545 C8.05338855,45.0212928 6.66217558,45.1434364 5.87801515,46.0790561 L0.517142696,52.467165 C-0.267017731,53.4040062 -0.146095796,54.7964429 0.789522409,55.5806047 Z M49.1924966,8.98771729 C49.976657,8.05331896 49.8545136,6.66210366 48.9201169,5.87672049 L42.5320187,0.515839065 C41.5964005,-0.267101238 40.2051875,-0.144957665 39.4198057,0.788219233 C38.6368667,1.723839 38.75901,3.11627574 39.6934068,3.90043747 L41.9542806,5.79732716 C32.8179566,6.99189131 24.3705212,11.1154583 17.7454649,17.7405257 C16.8831327,18.6040808 16.8831327,20.0026247 17.7454649,20.8637369 C18.1778524,21.2961251 18.7409333,21.5110978 19.3064571,21.5110978 C19.8719809,21.5110978 20.4362833,21.2949037 20.8674494,20.8637369 C26.7694169,14.9629809 34.2861199,11.2779093 42.4208682,10.1908315 L40.4494743,12.538431 C39.6665353,13.4740507 39.7886786,14.8664875 40.7230754,15.6506492 C41.1371414,15.9975369 41.6403721,16.1673165 42.1411599,16.1673165 C42.7714197,16.1673165 43.3967937,15.8986007 43.8352884,15.378269 L49.1924966,8.98771729 Z M20.6561413,47.4983644 C20.6561413,62.3009441 32.6982561,74.3430789 47.5008109,74.3430789 C62.3033658,74.3430789 74.3454805,62.3021655 74.3454805,47.4983644 C74.3454805,32.6982277 62.3033658,20.6548714 47.5008109,20.6548714 C32.6982561,20.6548714 20.6561413,32.6982277 20.6561413,47.4983644 Z M25.0728456,47.4983644 C25.0728456,35.1337705 35.1337948,25.0728044 47.5008109,25.0728044 C59.867827,25.0728044 69.9275549,35.1337705 69.9275549,47.4983644 C69.9275549,59.8654012 59.867827,69.9263673 47.5008109,69.9263673 C35.1337948,69.9263673 25.0728456,59.8654012 25.0728456,47.4983644 Z M30.4593681,47.4983644 C30.4593681,56.896091 38.1043216,64.5410572 47.5008109,64.5410572 C56.8973003,64.5410572 64.5422537,56.896091 64.5422537,47.4983644 C64.5422537,38.1018594 56.8973003,30.4581146 47.5008109,30.4581146 C38.1043216,30.4581146 30.4593681,38.1018594 30.4593681,47.4983644 Z M34.8748509,47.4983644 C34.8748509,40.5374022 40.5386389,34.8736047 47.5008109,34.8736047 C54.4617615,34.8736047 60.1255495,40.5374022 60.1255495,47.4983644 C60.1255495,54.4605481 54.4617615,60.125567 47.5008109,60.125567 C40.5386389,60.125567 34.8748509,54.4605481 34.8748509,47.4983644 Z" id="Shape"></path>
                </g>
            </g>
        </g>
    </g>
</svg>